<svg width="50" height="50" viewBox="0 0 50 50" fill="none" xmlns="http://www.w3.org/2000/svg">
<g clip-path="url(#clip0_1_374)">
<path d="M13.8015 38.2539L24.5309 45.5693C24.8249 45.7687 25.2106 45.7687 25.5042 45.5693L36.237 38.2543C39.2506 36.1992 41.709 31.563 41.709 27.9185V12.5687C41.7065 12.2394 41.5172 11.9399 41.2211 11.7957L25.4016 4.02722C25.1618 3.90987 24.8813 3.90987 24.6416 4.02722L8.82032 11.7721C8.52296 11.916 8.33327 12.2154 8.33032 12.5456V27.9185C8.33032 31.563 10.7883 36.1992 13.8015 38.2539ZM10.0531 13.0827L25.018 5.76009L39.9863 13.1054V27.9185C39.9863 30.9544 37.7777 35.1187 35.2667 36.8306L25.023 43.815L14.7739 36.8306C12.2633 35.1187 10.0531 30.9544 10.0531 27.9185V13.0827Z" fill="white"/>
<path d="M11.8007 41.1759L24.5271 49.8503C24.822 50.0501 25.2085 50.0501 25.5034 49.8503L38.2374 41.1763C42.1679 38.4967 45.2622 32.673 45.2622 27.9186V10.3658C45.2564 10.0347 45.0641 9.7357 44.7659 9.59228L25.4075 0.0880103C25.1669 -0.0293368 24.8855 -0.0293368 24.6449 0.0880103L5.27635 9.5662C4.97688 9.70878 4.78383 10.0083 4.7771 10.3397V27.9186C4.7771 32.673 7.8706 38.4967 11.8007 41.1759ZM6.49987 10.8768L25.0201 1.82088L43.5399 10.902V27.9186C43.5399 32.1624 40.777 37.3606 37.2679 39.753L25.0268 48.096L12.7752 39.7526C9.26699 37.361 6.49987 32.1624 6.49987 27.9186V10.8768Z" fill="white"/>
<path d="M21.9839 32.9354C22.1458 33.0965 22.3658 33.1857 22.5941 33.1831H22.5963C22.8234 33.1861 23.0429 33.0978 23.2053 32.9388L35.4439 20.7036C35.6058 20.5425 35.6966 20.3238 35.6966 20.0954C35.6966 19.867 35.6058 19.6483 35.4439 19.4872L33.0077 17.0519C32.6713 16.7154 32.1258 16.7154 31.7893 17.0519L22.611 26.2306L18.2653 21.8421C17.9306 21.504 17.385 21.5014 17.0469 21.8362L14.5986 24.2606C14.4362 24.4216 14.3445 24.6404 14.3433 24.8687C14.3424 25.0959 14.432 25.3142 14.5927 25.4752L21.9839 32.9354ZM17.6471 23.6671L21.9961 28.0703C22.1559 28.2365 22.3754 28.3328 22.6059 28.3374H22.608C22.8381 28.3332 23.0568 28.2382 23.2171 28.0733L32.3987 18.8862L33.6168 20.1013L22.5992 31.1176L16.4231 24.8805L17.6471 23.6671Z" fill="white"/>
</g>
<defs>
<clipPath id="clip0_1_374">
<rect width="50" height="50" fill="white"/>
</clipPath>
</defs>
</svg>
