<svg width="55" height="55" viewBox="0 0 55 55" fill="none" xmlns="http://www.w3.org/2000/svg">
<path d="M31.3274 15.0169C29.9109 13.6006 27.6183 13.6004 26.2016 15.0169L20.2979 20.9207L18.8238 19.4467C17.413 18.036 15.1259 18.0312 13.7095 19.4474C12.2996 20.8575 12.2996 23.1527 13.7095 24.5628L19.6157 30.471C20.0466 30.9019 20.7226 30.8887 21.1398 30.466L31.3438 20.1261C32.7389 18.7132 32.7315 16.4212 31.3274 15.0169ZM29.8149 18.617L20.3704 28.1835L15.2287 23.0418C14.6564 22.4694 14.6564 21.5381 15.2287 20.9657C15.8021 20.3923 16.7309 20.3919 17.3046 20.9657L19.5382 23.1995C19.9575 23.6187 20.6379 23.619 21.0574 23.1995L27.7207 16.5361C28.2973 15.9592 29.2314 15.9591 29.8081 16.5361C30.38 17.108 30.383 18.0415 29.8149 18.617Z" fill="white"/>
<path d="M48.456 40.2264L37.9342 31.205C41.9094 24.2684 40.7652 15.4898 35.0823 9.80664C28.1393 2.86396 16.9016 2.86321 9.9579 9.80675C3.01522 16.7495 3.01415 27.9879 9.9579 34.9317C15.7725 40.7467 24.5223 41.6471 31.2536 37.8408L39.9184 48.5313C42.1472 51.281 46.2743 51.512 48.7921 48.9943C51.2525 46.5338 51.0975 42.4909 48.456 40.2264ZM11.4771 33.4116C5.37399 27.3087 5.37292 17.4297 11.4771 11.3256C17.58 5.22263 27.4591 5.22166 33.563 11.3256C40.5167 18.2794 39.4168 30.1012 30.9226 35.5356C30.9223 35.5357 30.9221 35.5359 30.9219 35.536C24.9557 39.3513 16.8267 38.7617 11.4771 33.4116ZM47.2728 47.4749C45.6665 49.0814 43.0207 48.9467 41.5873 47.1783L33.0671 36.6662C34.4866 35.6148 35.738 34.3609 36.7441 33.0145L47.0577 41.8574C48.7435 43.3028 48.8616 45.8863 47.2728 47.4749Z" fill="white"/>
</svg>
